<svg version="1.1" xmlns="http://www.w3.org/2000/svg" viewBox="0 0 917 381.5" width="917" height="381.5">
  <!-- svg-source:excalidraw -->
  
  <defs>
    <style class="style-fonts">
      @font-face {
        font-family: "Virgil";
        src: url("https://unpkg.com/@excalidraw/excalidraw@0.14.1/dist/excalidraw-assets/Virgil.woff2");
      }
      @font-face {
        font-family: "Cascadia";
        src: url("https://unpkg.com/@excalidraw/excalidraw@0.14.1/dist/excalidraw-assets/Cascadia.woff2");
      }
    </style>
  </defs>
  <g stroke-linecap="round" transform="translate(10 163) rotate(0 28.5 28.5)"><path d="M34.41 1.37 C39.92 2.41, 46.24 7.13, 49.85 11.62 C53.46 16.12, 56.07 22.21, 56.08 28.34 C56.08 34.46, 53.84 43.64, 49.89 48.4 C45.94 53.15, 38.55 56.28, 32.39 56.89 C26.24 57.5, 18.03 55.33, 12.97 52.05 C7.92 48.78, 3.81 43.08, 2.07 37.26 C0.32 31.44, 0.28 22.64, 2.51 17.13 C4.73 11.62, 9.61 6.62, 15.42 4.18 C21.24 1.74, 33.28 2.46, 37.42 2.46 C41.56 2.47, 40.24 4.06, 40.27 4.21 M19.25 1.39 C24.63 -0.84, 34.71 -0.33, 40.64 1.89 C46.56 4.12, 52.01 9.43, 54.81 14.75 C57.62 20.06, 59.13 27.76, 57.47 33.78 C55.8 39.8, 50.06 47.09, 44.83 50.85 C39.59 54.62, 32.31 56.57, 26.07 56.36 C19.83 56.16, 11.76 53.96, 7.41 49.62 C3.06 45.27, 0.31 36.47, -0.05 30.3 C-0.41 24.13, 2.01 17.2, 5.25 12.57 C8.48 7.94, 16.55 4.1, 19.34 2.52 C22.12 0.95, 21.4 3.11, 21.95 3.12" stroke="#000000" stroke-width="1" fill="none"></path></g><g transform="translate(32.5 179) rotate(0 6 12.5)"><text x="6" y="18" font-family="Virgil, Segoe UI Emoji" font-size="20px" fill="#000000" text-anchor="middle" style="white-space: pre;" direction="ltr">s</text></g><g stroke-linecap="round" transform="translate(850 166) rotate(0 28.5 28.5)"><path d="M28.29 0.18 C33.97 -0.58, 41.04 1.98, 45.63 5.76 C50.22 9.54, 54.4 16.94, 55.85 22.84 C57.3 28.75, 57.07 35.83, 54.32 41.19 C51.57 46.55, 45.04 52.68, 39.36 55.01 C33.67 57.33, 25.86 57.15, 20.19 55.13 C14.52 53.1, 8.56 48.03, 5.33 42.87 C2.1 37.7, -0.04 29.98, 0.8 24.13 C1.63 18.28, 5.55 11.89, 10.33 7.76 C15.1 3.63, 25.66 0.45, 29.44 -0.64 C33.21 -1.73, 32.85 0.6, 32.96 1.23 M23.53 1.82 C28.9 0.69, 36.93 1.32, 42.34 4.18 C47.75 7.04, 53.85 13.49, 56.01 18.99 C58.18 24.48, 57.68 31.59, 55.34 37.16 C52.99 42.73, 47.19 49.06, 41.94 52.4 C36.69 55.74, 29.72 57.86, 23.83 57.2 C17.94 56.55, 10.62 53.15, 6.59 48.47 C2.57 43.78, -0.32 35.31, -0.31 29.1 C-0.31 22.88, 2.92 15.89, 6.65 11.18 C10.38 6.46, 19.37 2.71, 22.06 0.79 C24.76 -1.13, 22.75 -1, 22.81 -0.34" stroke="#000000" stroke-width="1" fill="none"></path></g><g transform="translate(872.5 182) rotate(0 6 12.5)"><text x="6" y="18" font-family="Virgil, Segoe UI Emoji" font-size="20px" fill="#000000" text-anchor="middle" style="white-space: pre;" direction="ltr">t</text></g><g stroke-linecap="round" transform="translate(208 13) rotate(0 28.5 28.5)"><path d="M35.86 -0.08 C41.81 1, 48.68 7.12, 52.1 12.26 C55.52 17.4, 56.96 24.91, 56.39 30.74 C55.82 36.58, 52.73 42.86, 48.69 47.28 C44.65 51.7, 38.11 56.4, 32.16 57.25 C26.21 58.11, 18.16 55.83, 13 52.43 C7.84 49.02, 3.05 42.77, 1.21 36.84 C-0.64 30.91, -0.45 22.37, 1.91 16.84 C4.28 11.31, 9.67 6.39, 15.39 3.65 C21.1 0.92, 32.48 0.7, 36.2 0.43 C39.93 0.15, 37.88 1.56, 37.74 2.01 M19.31 0.25 C25.03 -1.67, 34.24 0.98, 40 3.25 C45.76 5.52, 51.23 8.73, 53.87 13.88 C56.51 19.02, 57.16 28.1, 55.85 34.14 C54.54 40.17, 50.8 46.39, 46 50.09 C41.2 53.8, 33.1 56.61, 27.06 56.36 C21.01 56.11, 14.3 52.46, 9.73 48.59 C5.16 44.72, 0.63 38.84, -0.37 33.13 C-1.38 27.42, 0.45 19.5, 3.7 14.33 C6.95 9.16, 16.53 4.02, 19.13 2.09 C21.73 0.15, 19.1 2.39, 19.29 2.69" stroke="#000000" stroke-width="1" fill="none"></path></g><g transform="translate(229.5 29) rotate(0 7 12.5)"><text x="7" y="18" font-family="Virgil, Segoe UI Emoji" font-size="20px" fill="#000000" text-anchor="middle" style="white-space: pre;" direction="ltr">a</text></g><g stroke-linecap="round" transform="translate(408 11) rotate(0 28.5 28.5)"><path d="M21.17 0.31 C26.85 -1.33, 35.89 0.5, 41.37 3.33 C46.86 6.15, 51.53 11.59, 54.05 17.24 C56.57 22.88, 57.95 31.27, 56.48 37.19 C55.01 43.12, 50.47 49.6, 45.24 52.79 C40 55.97, 31.28 56.91, 25.05 56.3 C18.81 55.69, 11.82 53.38, 7.8 49.11 C3.79 44.85, 1.39 36.94, 0.96 30.73 C0.53 24.52, 0.93 17.03, 5.23 11.85 C9.53 6.68, 22.26 1.53, 26.75 -0.31 C31.25 -2.15, 32.24 0.29, 32.21 0.81 M23.5 1.34 C28.82 0.28, 37.12 2.81, 42.61 5.57 C48.09 8.33, 54.58 12.51, 56.42 17.91 C58.26 23.31, 56.09 31.89, 53.66 37.97 C51.22 44.06, 47.17 51.41, 41.83 54.44 C36.49 57.46, 27.76 57.45, 21.62 56.12 C15.48 54.8, 8.52 51.33, 4.99 46.49 C1.46 41.65, 0.22 33.24, 0.42 27.09 C0.63 20.94, 2.03 14.01, 6.23 9.6 C10.44 5.18, 22.47 2.27, 25.65 0.61 C28.83 -1.04, 25.3 -0.91, 25.32 -0.32" stroke="#000000" stroke-width="1" fill="none"></path></g><g transform="translate(430.5 27) rotate(0 6 12.5)"><text x="6" y="18" font-family="Virgil, Segoe UI Emoji" font-size="20px" fill="#000000" text-anchor="middle" style="white-space: pre;" direction="ltr">d</text></g><g stroke-linecap="round" transform="translate(630 10) rotate(0 28.5 28.5)"><path d="M26.51 -0.93 C32.41 -1.25, 41.25 2.9, 46.18 6.72 C51.11 10.53, 54.99 16.19, 56.09 21.96 C57.2 27.73, 55.48 35.82, 52.81 41.36 C50.14 46.89, 45.58 52.64, 40.06 55.16 C34.55 57.69, 25.54 58.33, 19.73 56.51 C13.92 54.69, 8.38 49.66, 5.21 44.27 C2.03 38.89, -0.17 30.2, 0.67 24.21 C1.51 18.22, 5.43 12.41, 10.25 8.34 C15.08 4.26, 25.87 0.86, 29.62 -0.24 C33.38 -1.34, 32.58 1.26, 32.79 1.75 M16.91 1.68 C22.41 -0.97, 30.75 0.4, 36.51 1.94 C42.27 3.48, 48.22 6.34, 51.48 10.92 C54.73 15.5, 56.48 23.27, 56.06 29.42 C55.63 35.56, 53.04 43.47, 48.93 47.79 C44.83 52.11, 37.37 54.8, 31.41 55.33 C25.45 55.86, 18 54.27, 13.17 50.96 C8.34 47.65, 4.09 41.08, 2.43 35.48 C0.78 29.87, 1 22.83, 3.23 17.35 C5.46 11.86, 13.64 4.96, 15.82 2.58 C17.99 0.2, 15.99 2.33, 16.28 3.05" stroke="#000000" stroke-width="1" fill="none"></path></g><g transform="translate(653 26) rotate(0 5.5 12.5)"><text x="5.5" y="18" font-family="Virgil, Segoe UI Emoji" font-size="20px" fill="#000000" text-anchor="middle" style="white-space: pre;" direction="ltr">g</text></g><g stroke-linecap="round" transform="translate(206 163.5) rotate(0 28.5 28.5)"><path d="M25.54 0.14 C31.28 -0.87, 39.55 1.38, 44.56 4.78 C49.56 8.19, 53.98 14.78, 55.57 20.58 C57.15 26.37, 56.55 33.92, 54.08 39.56 C51.61 45.19, 46.15 51.55, 40.75 54.39 C35.35 57.24, 27.64 58.23, 21.68 56.63 C15.71 55.03, 8.74 49.76, 4.97 44.78 C1.2 39.8, -1.55 32.8, -0.92 26.76 C-0.3 20.72, 3.96 13.03, 8.73 8.54 C13.5 4.04, 23.71 1.21, 27.7 -0.21 C31.68 -1.63, 32.34 -0.47, 32.66 0.03 M36.13 0.22 C42 1.66, 50.04 8.6, 53.37 13.75 C56.7 18.91, 56.82 25.26, 56.1 31.14 C55.38 37.03, 53.2 44.55, 49.03 49.08 C44.87 53.61, 37.1 57.95, 31.11 58.31 C25.13 58.68, 18.02 55.14, 13.12 51.29 C8.23 47.43, 3.45 40.98, 1.74 35.18 C0.04 29.39, 0.47 21.9, 2.89 16.53 C5.32 11.16, 10.55 5.75, 16.29 2.96 C22.04 0.17, 34.19 0.05, 37.37 -0.22 C40.54 -0.48, 35.69 0.73, 35.35 1.37" stroke="#000000" stroke-width="1" fill="none"></path></g><g transform="translate(229 179.5) rotate(0 5.5 12.5)"><text x="5.5" y="18" font-family="Virgil, Segoe UI Emoji" font-size="20px" fill="#000000" text-anchor="middle" style="white-space: pre;" direction="ltr">b</text></g><g stroke-linecap="round" transform="translate(406 161.5) rotate(0 28.5 28.5)"><path d="M21.48 1.17 C27.19 -0.51, 36.26 -0.16, 41.86 2.62 C47.46 5.41, 52.63 12.06, 55.09 17.88 C57.56 23.7, 58.38 31.87, 56.66 37.53 C54.94 43.19, 50.11 48.67, 44.76 51.84 C39.4 55.01, 30.58 57.06, 24.53 56.56 C18.48 56.06, 12.52 53.31, 8.47 48.87 C4.42 44.42, 0.68 36.14, 0.23 29.87 C-0.22 23.59, 1.76 16.15, 5.77 11.2 C9.78 6.25, 20.71 2.02, 24.3 0.16 C27.89 -1.7, 27.21 -0.39, 27.32 0.04 M42.85 2.58 C48.32 5.25, 54.43 13.14, 56.31 18.69 C58.19 24.24, 56.4 30.27, 54.14 35.88 C51.87 41.48, 47.5 49.05, 42.73 52.32 C37.96 55.59, 31.45 56.46, 25.5 55.47 C19.55 54.48, 11.25 50.62, 7.03 46.36 C2.82 42.11, 0.51 36, 0.22 29.96 C-0.07 23.92, 1.57 14.76, 5.28 10.11 C8.99 5.46, 16.32 3.03, 22.46 2.06 C28.6 1.09, 39.14 3.84, 42.13 4.32 C45.11 4.79, 40.46 4.75, 40.36 4.91" stroke="#000000" stroke-width="1" fill="none"></path></g><g transform="translate(428.5 177.5) rotate(0 6 12.5)"><text x="6" y="18" font-family="Virgil, Segoe UI Emoji" font-size="20px" fill="#000000" text-anchor="middle" style="white-space: pre;" direction="ltr">e</text></g><g stroke-linecap="round" transform="translate(628 160.5) rotate(0 28.5 28.5)"><path d="M21.97 0.86 C27.87 -0.54, 37.56 0.54, 43 3.27 C48.45 5.99, 52.63 11.35, 54.66 17.19 C56.68 23.04, 57.01 32.41, 55.17 38.33 C53.33 44.24, 48.65 49.5, 43.62 52.68 C38.6 55.87, 31.03 58.25, 25.02 57.43 C19.01 56.6, 11.83 52.28, 7.57 47.73 C3.31 43.18, -0.46 36.41, -0.54 30.13 C-0.61 23.84, 2.76 15.07, 7.13 10 C11.5 4.93, 21.91 1.15, 25.7 -0.29 C29.49 -1.74, 29.82 0.95, 29.87 1.33 M13.89 4.71 C19.13 1.51, 29.63 -0.14, 35.73 0.77 C41.83 1.68, 47.06 5.4, 50.48 10.17 C53.9 14.93, 56.43 23.15, 56.24 29.33 C56.05 35.52, 53.56 42.65, 49.33 47.27 C45.09 51.89, 37.09 55.98, 30.85 57.07 C24.62 58.17, 17.05 57, 11.93 53.83 C6.81 50.67, 1.77 44.08, 0.15 38.08 C-1.46 32.07, -0.18 23.56, 2.26 17.81 C4.7 12.06, 12.66 5.83, 14.79 3.59 C16.91 1.35, 14.49 4.15, 15.01 4.36" stroke="#000000" stroke-width="1" fill="none"></path></g><g transform="translate(651 176.5) rotate(0 5.5 12.5)"><text x="5.5" y="18" font-family="Virgil, Segoe UI Emoji" font-size="20px" fill="#000000" text-anchor="middle" style="white-space: pre;" direction="ltr">h</text></g><g stroke-linecap="round" transform="translate(205 314) rotate(0 28.5 28.5)"><path d="M22.16 0.36 C27.68 -1.22, 36.93 0.05, 42.56 2.89 C48.18 5.73, 53.68 11.45, 55.9 17.38 C58.13 23.32, 58.01 32.55, 55.89 38.51 C53.77 44.47, 48.41 50.04, 43.17 53.17 C37.93 56.3, 30.35 58.37, 24.45 57.28 C18.54 56.2, 11.94 51.49, 7.73 46.67 C3.51 41.85, -0.76 34.46, -0.86 28.38 C-0.95 22.3, 3.08 14.77, 7.16 10.19 C11.24 5.6, 20.31 2.53, 23.62 0.86 C26.93 -0.81, 26.77 -0.31, 27.02 0.15 M31.4 -0.87 C37.15 -0.48, 45.16 4.89, 49.29 9.39 C53.41 13.89, 55.52 20.33, 56.13 26.12 C56.74 31.92, 56.13 38.95, 52.95 44.15 C49.76 49.35, 43.32 55.5, 37.03 57.31 C30.73 59.12, 20.68 57.95, 15.18 55.02 C9.68 52.09, 6.39 45.23, 4.04 39.72 C1.68 34.21, -0.33 27.69, 1.07 21.95 C2.46 16.21, 7.46 8.69, 12.39 5.3 C17.32 1.9, 27.79 2.18, 30.64 1.6 C33.49 1.01, 29.68 1.5, 29.49 1.79" stroke="#000000" stroke-width="1" fill="none"></path></g><g transform="translate(228 330) rotate(0 5.5 12.5)"><text x="5.5" y="18" font-family="Virgil, Segoe UI Emoji" font-size="20px" fill="#000000" text-anchor="middle" style="white-space: pre;" direction="ltr">c</text></g><g stroke-linecap="round" transform="translate(405 312) rotate(0 28.5 28.5)"><path d="M24.15 0.87 C29.79 -0.31, 37.14 1.13, 42.43 4.28 C47.73 7.44, 53.65 14, 55.91 19.8 C58.16 25.6, 58.28 33.61, 55.98 39.09 C53.67 44.58, 47.55 49.68, 42.08 52.71 C36.6 55.75, 28.92 58.29, 23.15 57.31 C17.38 56.34, 11.34 51.7, 7.45 46.88 C3.56 42.06, -0.03 34.59, -0.18 28.39 C-0.32 22.2, 2.25 14.41, 6.59 9.7 C10.92 4.98, 22.31 1.63, 25.81 0.1 C29.31 -1.44, 27.57 -0.17, 27.58 0.47 M31.49 1.65 C37.56 1.63, 46.41 3.65, 50.43 7.76 C54.44 11.88, 55.53 19.84, 55.59 26.35 C55.65 32.85, 54.48 41.83, 50.79 46.77 C47.09 51.71, 39.52 54.8, 33.41 56.01 C27.29 57.21, 19.23 56.87, 14.1 53.98 C8.96 51.09, 4.86 44.36, 2.58 38.68 C0.31 32.99, -1.57 25.52, 0.44 19.86 C2.44 14.21, 9.15 8.23, 14.61 4.75 C20.08 1.28, 30.12 -0.48, 33.23 -0.96 C36.33 -1.45, 33.56 1, 33.24 1.85" stroke="#000000" stroke-width="1" fill="none"></path></g><g transform="translate(428 328) rotate(0 5.5 12.5)"><text x="5.5" y="18" font-family="Virgil, Segoe UI Emoji" font-size="20px" fill="#000000" text-anchor="middle" style="white-space: pre;" direction="ltr">f</text></g><g stroke-linecap="round" transform="translate(627 311) rotate(0 28.5 28.5)"><path d="M16.63 3.54 C21.81 0.83, 29.8 -0.83, 35.5 0.53 C41.19 1.89, 47.12 6.6, 50.8 11.71 C54.49 16.81, 57.96 24.88, 57.59 31.16 C57.22 37.44, 52.87 45.02, 48.59 49.39 C44.3 53.75, 37.87 57.03, 31.89 57.36 C25.91 57.7, 17.68 54.8, 12.7 51.39 C7.72 47.98, 3.79 42.74, 1.99 36.89 C0.2 31.04, -0.81 22.03, 1.93 16.29 C4.67 10.55, 15.04 4.98, 18.44 2.47 C21.84 -0.05, 22.27 1.03, 22.34 1.19 M25.34 1.55 C30.82 0.39, 38.31 0.64, 43.17 3.44 C48.03 6.24, 52.56 12.54, 54.51 18.35 C56.45 24.16, 56.94 32.73, 54.86 38.32 C52.78 43.91, 47.26 49.07, 42.04 51.88 C36.82 54.68, 29.26 56.24, 23.53 55.15 C17.81 54.06, 11.45 49.82, 7.68 45.35 C3.91 40.87, 1.01 34.26, 0.9 28.28 C0.79 22.3, 3.12 14.19, 7.01 9.46 C10.89 4.72, 21.29 1.08, 24.22 -0.12 C27.15 -1.32, 24.71 1.71, 24.57 2.25" stroke="#000000" stroke-width="1" fill="none"></path></g><g transform="translate(653 327) rotate(0 2.5 12.5)"><text x="2.5" y="18" font-family="Virgil, Segoe UI Emoji" font-size="20px" fill="#000000" text-anchor="middle" style="white-space: pre;" direction="ltr">i</text></g><g mask="url(#mask-yA1lzOarvPcWvyXagd-qL)" stroke-linecap="round"><g transform="translate(44 156) rotate(0 79 -57)"><path d="M0 0 C26.33 -19, 131.67 -95, 158 -114 M0 0 C26.33 -19, 131.67 -95, 158 -114" stroke="#5c940d" stroke-width="1" fill="none"></path></g><g transform="translate(44 156) rotate(0 79 -57)"><path d="M141.14 -89.18 C146.68 -97.33, 152.21 -105.48, 158 -114 M141.14 -89.18 C146.11 -96.5, 151.09 -103.82, 158 -114" stroke="#5c940d" stroke-width="1" fill="none"></path></g><g transform="translate(44 156) rotate(0 79 -57)"><path d="M129.14 -105.83 C138.61 -108.51, 148.09 -111.19, 158 -114 M129.14 -105.83 C137.65 -108.24, 146.16 -110.65, 158 -114" stroke="#5c940d" stroke-width="1" fill="none"></path></g></g><mask id="mask-yA1lzOarvPcWvyXagd-qL"><rect x="0" y="0" fill="#fff" width="302" height="370"></rect><rect x="116.5" y="86.5" fill="#000" width="13" height="25" opacity="1"></rect></mask><g transform="translate(116.5 86.5) rotate(0 6.5 12.5)"><text x="6.5" y="18" font-family="Virgil, Segoe UI Emoji" font-size="20px" fill="#5c940d" text-anchor="middle" style="white-space: pre;" direction="ltr">9</text></g><g mask="url(#mask-HSVDujwVTKiFWVdfxY4ug)" stroke-linecap="round"><g transform="translate(213 67) rotate(0 -74 51)"><path d="M0 0 C-24.67 17, -123.33 85, -148 102 M0 0 C-24.67 17, -123.33 85, -148 102" stroke="#a61e4d" stroke-width="1" fill="none"></path></g><g transform="translate(213 67) rotate(0 -74 51)"><path d="M-130.61 77.55 C-134.43 82.93, -138.25 88.3, -148 102 M-130.61 77.55 C-136.23 85.45, -141.84 93.35, -148 102" stroke="#a61e4d" stroke-width="1" fill="none"></path></g><g transform="translate(213 67) rotate(0 -74 51)"><path d="M-118.97 94.45 C-125.35 96.11, -131.73 97.77, -148 102 M-118.97 94.45 C-128.34 96.89, -137.72 99.33, -148 102" stroke="#a61e4d" stroke-width="1" fill="none"></path></g></g><mask id="mask-HSVDujwVTKiFWVdfxY4ug"><rect x="0" y="0" fill="#fff" width="461" height="269"></rect><rect x="131.5" y="105.5" fill="#000" width="15" height="25" opacity="1"></rect></mask><g transform="translate(131.5 105.5) rotate(0 7.5 12.5)"><text x="7.5" y="18" font-family="Virgil, Segoe UI Emoji" font-size="20px" fill="#a61e4d" text-anchor="middle" style="white-space: pre;" direction="ltr">3</text></g><g mask="url(#mask-RUPqux85ZXw11aLkgpyYX)" stroke-linecap="round"><g transform="translate(77 182) rotate(0 59.5 -0.9259259259259238)"><path d="M0 0 C12.48 0, 55.03 0.33, 74.86 0 C94.69 -0.33, 111.64 -1.67, 119 -2 M0 0 C12.48 0, 55.03 0.33, 74.86 0 C94.69 -0.33, 111.64 -1.67, 119 -2" stroke="#5c940d" stroke-width="1" fill="none"></path></g><g transform="translate(77 182) rotate(0 59.5 -0.9259259259259238)"><path d="M98.7 6.73 C103.73 4.57, 108.76 2.41, 119 -2 M98.7 6.73 C106.18 3.51, 113.66 0.3, 119 -2" stroke="#5c940d" stroke-width="1" fill="none"></path></g><g transform="translate(77 182) rotate(0 59.5 -0.9259259259259238)"><path d="M97.84 -8.36 C103.08 -6.78, 108.32 -5.21, 119 -2 M97.84 -8.36 C105.64 -6.02, 113.43 -3.67, 119 -2" stroke="#5c940d" stroke-width="1" fill="none"></path></g></g><mask id="mask-RUPqux85ZXw11aLkgpyYX"><rect x="0" y="0" fill="#fff" width="296" height="284"></rect><rect x="144.36035130466928" y="169.5" fill="#000" width="15" height="25" opacity="1"></rect></mask><g transform="translate(144.36035130466928 169.5) rotate(0 -7.86035130466928 11.574074074074076)"><text x="7.5" y="18" font-family="Virgil, Segoe UI Emoji" font-size="20px" fill="#5c940d" text-anchor="middle" style="white-space: pre;" direction="ltr">3</text></g><g mask="url(#mask--tc2MFioMtC7223MShz9G)" stroke-linecap="round"><g transform="translate(193 198) rotate(0 -61 0)"><path d="M0 0 C-11.97 0, -51.49 0, -71.83 0 C-92.16 0, -113.64 0, -122 0 M0 0 C-11.97 0, -51.49 0, -71.83 0 C-92.16 0, -113.64 0, -122 0" stroke="#a61e4d" stroke-width="1" fill="none"></path></g><g transform="translate(193 198) rotate(0 -61 0)"><path d="M-98.43 -8.58 C-105.07 -6.16, -111.72 -3.74, -122 0 M-98.43 -8.58 C-105.37 -6.05, -112.32 -3.52, -122 0" stroke="#a61e4d" stroke-width="1" fill="none"></path></g><g transform="translate(193 198) rotate(0 -61 0)"><path d="M-98.43 8.58 C-105.07 6.16, -111.72 3.74, -122 0 M-98.43 8.58 C-105.37 6.05, -112.32 3.52, -122 0" stroke="#a61e4d" stroke-width="1" fill="none"></path></g></g><mask id="mask--tc2MFioMtC7223MShz9G"><rect x="0" y="0" fill="#fff" width="415" height="298"></rect><rect x="113.67352477567624" y="185.5" fill="#000" width="15" height="25" opacity="1"></rect></mask><g transform="translate(113.67352477567624 185.5) rotate(0 18.326475224323758 12.5)"><text x="7.5" y="18" font-family="Virgil, Segoe UI Emoji" font-size="20px" fill="#a61e4d" text-anchor="middle" style="white-space: pre;" direction="ltr">0</text></g><g mask="url(#mask-HbPEBLMZGSTe6JR0vfqGC)" stroke-linecap="round"><g transform="translate(65 216) rotate(0 71 51)"><path d="M0 0 C23.67 17, 118.33 85, 142 102 M0 0 C23.67 17, 118.33 85, 142 102" stroke="#5c940d" stroke-width="1" fill="none"></path></g><g transform="translate(65 216) rotate(0 71 51)"><path d="M113.12 93.89 C121.3 96.18, 129.48 98.48, 142 102 M113.12 93.89 C121.9 96.35, 130.69 98.82, 142 102" stroke="#5c940d" stroke-width="1" fill="none"></path></g><g transform="translate(65 216) rotate(0 71 51)"><path d="M125.09 77.22 C129.88 84.24, 134.67 91.25, 142 102 M125.09 77.22 C130.23 84.76, 135.38 92.29, 142 102" stroke="#5c940d" stroke-width="1" fill="none"></path></g></g><mask id="mask-HbPEBLMZGSTe6JR0vfqGC"><rect x="0" y="0" fill="#fff" width="307" height="418"></rect><rect x="128.5" y="254.5" fill="#000" width="15" height="25" opacity="1"></rect></mask><g transform="translate(128.5 254.5) rotate(0 7.5 12.5)"><text x="7.5" y="18" font-family="Virgil, Segoe UI Emoji" font-size="20px" fill="#5c940d" text-anchor="middle" style="white-space: pre;" direction="ltr">0</text></g><g mask="url(#mask-1KKvpeo8l280-AzK9FlTy)" stroke-linecap="round"><g transform="translate(190 338) rotate(0 -69 -55.5)"><path d="M0 0 C-23 -18.5, -115 -92.5, -138 -111 M0 0 C-23 -18.5, -115 -92.5, -138 -111" stroke="#a61e4d" stroke-width="1" fill="none"></path></g><g transform="translate(190 338) rotate(0 -69 -55.5)"><path d="M-109.6 -101.33 C-120.96 -105.2, -132.32 -109.06, -138 -111 M-109.6 -101.33 C-117.88 -104.14, -126.15 -106.96, -138 -111" stroke="#a61e4d" stroke-width="1" fill="none"></path></g><g transform="translate(190 338) rotate(0 -69 -55.5)"><path d="M-122.46 -85.34 C-128.68 -95.6, -134.89 -105.87, -138 -111 M-122.46 -85.34 C-126.99 -92.81, -131.52 -100.29, -138 -111" stroke="#a61e4d" stroke-width="1" fill="none"></path></g></g><mask id="mask-1KKvpeo8l280-AzK9FlTy"><rect x="0" y="0" fill="#fff" width="428" height="549"></rect><rect x="114.5" y="270" fill="#000" width="13" height="25" opacity="1"></rect></mask><g transform="translate(114.5 270) rotate(0 6.5 12.5)"><text x="6.5" y="18" font-family="Virgil, Segoe UI Emoji" font-size="20px" fill="#a61e4d" text-anchor="middle" style="white-space: pre;" direction="ltr">5</text></g><g mask="url(#mask-dekraVZnWCXo1Na_bheY4)" stroke-linecap="round"><g transform="translate(269 25) rotate(0 66.5 0.5)"><path d="M0 0 C12.03 0.12, 49.99 0.53, 72.15 0.69 C94.32 0.86, 122.86 0.95, 133 1 M0 0 C12.03 0.12, 49.99 0.53, 72.15 0.69 C94.32 0.86, 122.86 0.95, 133 1" stroke="#5c940d" stroke-width="1" fill="none"></path></g><g transform="translate(269 25) rotate(0 66.5 0.5)"><path d="M104.77 11.14 C115.07 7.44, 125.38 3.74, 133 1 M104.77 11.14 C113.12 8.14, 121.47 5.14, 133 1" stroke="#5c940d" stroke-width="1" fill="none"></path></g><g transform="translate(269 25) rotate(0 66.5 0.5)"><path d="M104.85 -9.38 C115.13 -5.59, 125.4 -1.8, 133 1 M104.85 -9.38 C113.18 -6.31, 121.51 -3.24, 133 1" stroke="#5c940d" stroke-width="1" fill="none"></path></g></g><mask id="mask-dekraVZnWCXo1Na_bheY4"><rect x="0" y="0" fill="#fff" width="502" height="126"></rect><rect x="333.6522404777113" y="13.194110212707187" fill="#000" width="15" height="25" opacity="1"></rect></mask><g transform="translate(333.6522404777113 13.194110212707187) rotate(0 1.8477595222886976 12.305889787292813)"><text x="7.5" y="18" font-family="Virgil, Segoe UI Emoji" font-size="20px" fill="#5c940d" text-anchor="middle" style="white-space: pre;" direction="ltr">0</text></g><g mask="url(#mask-Zb-Qn_4pegBwVwnMG32vF)" stroke-linecap="round"><g transform="translate(467 21) rotate(0 78.5 1.5)"><path d="M0 0 C26.17 0.5, 130.83 2.5, 157 3 M0 0 C26.17 0.5, 130.83 2.5, 157 3" stroke="#5c940d" stroke-width="1" fill="none"></path></g><g transform="translate(467 21) rotate(0 78.5 1.5)"><path d="M128.62 12.72 C139.76 8.91, 150.9 5.09, 157 3 M128.62 12.72 C135.88 10.23, 143.14 7.75, 157 3" stroke="#5c940d" stroke-width="1" fill="none"></path></g><g transform="translate(467 21) rotate(0 78.5 1.5)"><path d="M129.01 -7.8 C140 -3.56, 150.98 0.68, 157 3 M129.01 -7.8 C136.17 -5.03, 143.34 -2.27, 157 3" stroke="#5c940d" stroke-width="1" fill="none"></path></g></g><mask id="mask-Zb-Qn_4pegBwVwnMG32vF"><rect x="0" y="0" fill="#fff" width="724" height="124"></rect><rect x="542.5" y="10" fill="#000" width="6" height="25" opacity="1"></rect></mask><g transform="translate(542.5 10) rotate(0 3 12.5)"><text x="3" y="18" font-family="Virgil, Segoe UI Emoji" font-size="20px" fill="#5c940d" text-anchor="middle" style="white-space: pre;" direction="ltr">1</text></g><g mask="url(#mask-j2hunpX0ryzxUWTQdlmd0)" stroke-linecap="round"><g transform="translate(618 46) rotate(0 -75 -1.5)"><path d="M0 0 C-16.23 -0.26, -72.36 -1.04, -97.36 -1.54 C-122.36 -2.04, -141.23 -2.76, -150 -3 M0 0 C-16.23 -0.26, -72.36 -1.04, -97.36 -1.54 C-122.36 -2.04, -141.23 -2.76, -150 -3" stroke="#a61e4d" stroke-width="1" fill="none"></path></g><g transform="translate(618 46) rotate(0 -75 -1.5)"><path d="M-124.99 -11.23 C-134.36 -8.14, -143.73 -5.06, -150 -3 M-124.99 -11.23 C-131.51 -9.08, -138.04 -6.94, -150 -3" stroke="#a61e4d" stroke-width="1" fill="none"></path></g><g transform="translate(618 46) rotate(0 -75 -1.5)"><path d="M-125.55 6.77 C-134.71 3.11, -143.87 -0.55, -150 -3 M-125.55 6.77 C-131.93 4.22, -138.31 1.68, -150 -3" stroke="#a61e4d" stroke-width="1" fill="none"></path></g></g><mask id="mask-j2hunpX0ryzxUWTQdlmd0"><rect x="0" y="0" fill="#fff" width="868" height="149"></rect><rect x="513.1419882403259" y="31.961941387971876" fill="#000" width="15" height="25" opacity="1"></rect></mask><g transform="translate(513.1419882403259 31.961941387971876) rotate(0 29.858011759674127 12.538058612028124)"><text x="7.5" y="18" font-family="Virgil, Segoe UI Emoji" font-size="20px" fill="#a61e4d" text-anchor="middle" style="white-space: pre;" direction="ltr">2</text></g><g mask="url(#mask-t1QLSYA0K4qXG-1FZoyAk)" stroke-linecap="round"><g transform="translate(397 43) rotate(0 -62.5 0.4799392085725174)"><path d="M0 0 C-13.03 0.01, -57.32 -0.12, -78.16 0.05 C-98.99 0.21, -117.19 0.84, -125 1 M0 0 C-13.03 0.01, -57.32 -0.12, -78.16 0.05 C-98.99 0.21, -117.19 0.84, -125 1" stroke="#a61e4d" stroke-width="1" fill="none"></path></g><g transform="translate(397 43) rotate(0 -62.5 0.4799392085725174)"><path d="M-103.2 -7.57 C-111.47 -4.32, -119.73 -1.07, -125 1 M-103.2 -7.57 C-109.84 -4.96, -116.49 -2.35, -125 1" stroke="#a61e4d" stroke-width="1" fill="none"></path></g><g transform="translate(397 43) rotate(0 -62.5 0.4799392085725174)"><path d="M-102.79 8.45 C-111.21 5.62, -119.64 2.8, -125 1 M-102.79 8.45 C-109.56 6.18, -116.33 3.91, -125 1" stroke="#a61e4d" stroke-width="1" fill="none"></path></g></g><mask id="mask-t1QLSYA0K4qXG-1FZoyAk"><rect x="0" y="0" fill="#fff" width="622" height="144"></rect><rect x="311.3429196965185" y="30.54580415363489" fill="#000" width="15" height="25" opacity="1"></rect></mask><g transform="translate(311.3429196965185 30.54580415363486) rotate(0 23.157080303481507 12.934135054937656)"><text x="7.5" y="18" font-family="Virgil, Segoe UI Emoji" font-size="20px" fill="#a61e4d" text-anchor="middle" style="white-space: pre;" direction="ltr">3</text></g><g mask="url(#mask-s9nNhXhSZAuSDnQ_03xof)" stroke-linecap="round"><g transform="translate(219 308) rotate(0 0 -41)"><path d="M0 0 C0 -4.35, 0 -12.46, 0 -26.12 C0 -39.79, 0 -72.69, 0 -82 M0 0 C0 -4.35, 0 -12.46, 0 -26.12 C0 -39.79, 0 -72.69, 0 -82" stroke="#a61e4d" stroke-width="1" fill="none"></path></g><g transform="translate(219 308) rotate(0 0 -41)"><path d="M9.56 -55.75 C7.21 -62.19, 4.86 -68.64, 0 -82 M9.56 -55.75 C6.31 -64.66, 3.06 -73.58, 0 -82" stroke="#a61e4d" stroke-width="1" fill="none"></path></g><g transform="translate(219 308) rotate(0 0 -41)"><path d="M-9.56 -55.75 C-7.21 -62.19, -4.86 -68.64, 0 -82 M-9.56 -55.75 C-6.31 -64.66, -3.06 -73.58, 0 -82" stroke="#a61e4d" stroke-width="1" fill="none"></path></g></g><mask id="mask-s9nNhXhSZAuSDnQ_03xof"><rect x="0" y="0" fill="#fff" width="319" height="490"></rect><rect x="211.5" y="269.3780243356964" fill="#000" width="15" height="25" opacity="1"></rect></mask><g transform="translate(211.5 269.37802433569635) rotate(0 7.5 -2.3780243356963524)"><text x="7.5" y="18" font-family="Virgil, Segoe UI Emoji" font-size="20px" fill="#a61e4d" text-anchor="middle" style="white-space: pre;" direction="ltr">0</text></g><g mask="url(#mask-QE13ZXMAJag85qfBwtg8-)" stroke-linecap="round"><g transform="translate(236 230) rotate(0 0 37)"><path d="M0 0 C0 5.11, 0 18.33, 0 30.66 C0 42.99, 0 66.78, 0 74 M0 0 C0 5.11, 0 18.33, 0 30.66 C0 42.99, 0 66.78, 0 74" stroke="#5c940d" stroke-width="1" fill="none"></path></g><g transform="translate(236 230) rotate(0 0 37)"><path d="M-7.41 53.64 C-5.32 59.37, -3.24 65.11, 0 74 M-7.41 53.64 C-5.72 58.28, -4.03 62.92, 0 74" stroke="#5c940d" stroke-width="1" fill="none"></path></g><g transform="translate(236 230) rotate(0 0 37)"><path d="M7.41 53.64 C5.32 59.37, 3.24 65.11, 0 74 M7.41 53.64 C5.72 58.28, 4.03 62.92, 0 74" stroke="#5c940d" stroke-width="1" fill="none"></path></g></g><mask id="mask-QE13ZXMAJag85qfBwtg8-"><rect x="0" y="0" fill="#fff" width="336" height="404"></rect><rect x="229.5" y="248.158410246499" fill="#000" width="13" height="25" opacity="1"></rect></mask><g transform="translate(229.5 248.15841024649905) rotate(0 6.5 18.841589753500955)"><text x="6.5" y="18" font-family="Virgil, Segoe UI Emoji" font-size="20px" fill="#5c940d" text-anchor="middle" style="white-space: pre;" direction="ltr">5</text></g><g mask="url(#mask-ZDEQCGSXuN1mYDrA_l5g5)" stroke-linecap="round"><g transform="translate(221 156) rotate(0 0 -39.5)"><path d="M0 0 C0 -4.91, 0 -16.28, 0 -29.44 C0 -42.61, 0 -70.74, 0 -79 M0 0 C0 -4.91, 0 -16.28, 0 -29.44 C0 -42.61, 0 -70.74, 0 -79" stroke="#a61e4d" stroke-width="1" fill="none"></path></g><g transform="translate(221 156) rotate(0 0 -39.5)"><path d="M8.47 -55.72 C6.25 -61.82, 4.03 -67.92, 0 -79 M8.47 -55.72 C5.12 -64.95, 1.76 -74.18, 0 -79" stroke="#a61e4d" stroke-width="1" fill="none"></path></g><g transform="translate(221 156) rotate(0 0 -39.5)"><path d="M-8.47 -55.72 C-6.25 -61.82, -4.03 -67.92, 0 -79 M-8.47 -55.72 C-5.12 -64.95, -1.76 -74.18, 0 -79" stroke="#a61e4d" stroke-width="1" fill="none"></path></g></g><mask id="mask-ZDEQCGSXuN1mYDrA_l5g5"><rect x="0" y="0" fill="#fff" width="321" height="335"></rect><rect x="213.5" y="114.05657291108082" fill="#000" width="15" height="25" opacity="1"></rect></mask><g transform="translate(213.5 114.05657291108082) rotate(0 7.5 2.4434270889191794)"><text x="7.5" y="18" font-family="Virgil, Segoe UI Emoji" font-size="20px" fill="#a61e4d" text-anchor="middle" style="white-space: pre;" direction="ltr">0</text></g><g mask="url(#mask-5fi88o6BG0ZEknWsM5ejl)" stroke-linecap="round"><g transform="translate(424 152) rotate(0 0 -39.5)"><path d="M0 0 C0 -4.37, 0 -13.05, 0 -26.21 C0 -39.38, 0 -70.2, 0 -79 M0 0 C0 -4.37, 0 -13.05, 0 -26.21 C0 -39.38, 0 -70.2, 0 -79" stroke="#5c940d" stroke-width="1" fill="none"></path></g><g transform="translate(424 152) rotate(0 0 -39.5)"><path d="M9.03 -54.2 C5.44 -64.05, 1.86 -73.9, 0 -79 M9.03 -54.2 C5.51 -63.87, 1.98 -73.55, 0 -79" stroke="#5c940d" stroke-width="1" fill="none"></path></g><g transform="translate(424 152) rotate(0 0 -39.5)"><path d="M-9.03 -54.2 C-5.44 -64.05, -1.86 -73.9, 0 -79 M-9.03 -54.2 C-5.51 -63.87, -1.98 -73.55, 0 -79" stroke="#5c940d" stroke-width="1" fill="none"></path></g></g><mask id="mask-5fi88o6BG0ZEknWsM5ejl"><rect x="0" y="0" fill="#fff" width="524" height="331"></rect><rect x="416.5" y="113.28669398691915" fill="#000" width="15" height="25" opacity="1"></rect></mask><g transform="translate(416.5 113.28669398691915) rotate(0 7.5 -0.7866939869191469)"><text x="7.5" y="18" font-family="Virgil, Segoe UI Emoji" font-size="20px" fill="#5c940d" text-anchor="middle" style="white-space: pre;" direction="ltr">2</text></g><g mask="url(#mask-iFdwLEG-T6NaHOr5aMTJ5)" stroke-linecap="round"><g transform="translate(650 151) rotate(0 0.07959341191724434 -39.5)"><path d="M0 0 C0.03 -5.31, 0.16 -18.67, 0.16 -31.84 C0.16 -45.01, 0.03 -71.14, 0 -79 M0 0 C0.03 -5.31, 0.16 -18.67, 0.16 -31.84 C0.16 -45.01, 0.03 -71.14, 0 -79" stroke="#a61e4d" stroke-width="1" fill="none"></path></g><g transform="translate(650 151) rotate(0 0.07959341191724434 -39.5)"><path d="M8.16 -56.88 C6.36 -61.74, 4.57 -66.61, 0 -79 M8.16 -56.88 C5.01 -65.41, 1.86 -73.95, 0 -79" stroke="#a61e4d" stroke-width="1" fill="none"></path></g><g transform="translate(650 151) rotate(0 0.07959341191724434 -39.5)"><path d="M-7.97 -56.81 C-6.22 -61.69, -4.47 -66.57, 0 -79 M-7.97 -56.81 C-4.9 -65.37, -1.82 -73.94, 0 -79" stroke="#a61e4d" stroke-width="1" fill="none"></path></g></g><mask id="mask-iFdwLEG-T6NaHOr5aMTJ5"><rect x="0" y="0" fill="#fff" width="750.1591868238345" height="330"></rect><rect x="642.6591868238345" y="106.66023266404198" fill="#000" width="15" height="25" opacity="1"></rect></mask><g transform="translate(642.6591868238345 106.66023266404198) rotate(0 7.420406588082756 4.839767335958015)"><text x="7.5" y="18" font-family="Virgil, Segoe UI Emoji" font-size="20px" fill="#a61e4d" text-anchor="middle" style="white-space: pre;" direction="ltr">0</text></g><g mask="url(#mask-HhzxjLqgNoz6k7Yv4oVOf)" stroke-linecap="round"><g transform="translate(422 306) rotate(0 0 -39.5)"><path d="M0 0 C0 -5.24, 0 -18.25, 0 -31.42 C0 -44.59, 0 -71.07, 0 -79 M0 0 C0 -5.24, 0 -18.25, 0 -31.42 C0 -44.59, 0 -71.07, 0 -79" stroke="#5c940d" stroke-width="1" fill="none"></path></g><g transform="translate(422 306) rotate(0 0 -39.5)"><path d="M8.14 -56.64 C5.01 -65.24, 1.88 -73.83, 0 -79 M8.14 -56.64 C5.86 -62.9, 3.58 -69.15, 0 -79" stroke="#5c940d" stroke-width="1" fill="none"></path></g><g transform="translate(422 306) rotate(0 0 -39.5)"><path d="M-8.14 -56.64 C-5.01 -65.24, -1.88 -73.83, 0 -79 M-8.14 -56.64 C-5.86 -62.9, -3.58 -69.15, 0 -79" stroke="#5c940d" stroke-width="1" fill="none"></path></g></g><mask id="mask-HhzxjLqgNoz6k7Yv4oVOf"><rect x="0" y="0" fill="#fff" width="522" height="485"></rect><rect x="414.5" y="262.0808709642523" fill="#000" width="15" height="25" opacity="1"></rect></mask><g transform="translate(414.5 262.0808709642523) rotate(0 7.5 4.419129035747687)"><text x="7.5" y="18" font-family="Virgil, Segoe UI Emoji" font-size="20px" fill="#5c940d" text-anchor="middle" style="white-space: pre;" direction="ltr">3</text></g><g mask="url(#mask-t3rCJlUAe61hbDd5oK5qZ)" stroke-linecap="round"><g transform="translate(648 305) rotate(0 -0.12521773769674382 -39.5)"><path d="M0 0 C-0.04 -5.17, -0.25 -17.85, -0.25 -31.02 C-0.25 -44.19, -0.04 -71, 0 -79 M0 0 C-0.04 -5.17, -0.25 -17.85, -0.25 -31.02 C-0.25 -44.19, -0.04 -71, 0 -79" stroke="#a61e4d" stroke-width="1" fill="none"></path></g><g transform="translate(648 305) rotate(0 -0.12521773769674382 -39.5)"><path d="M8.06 -56.41 C6.17 -61.71, 4.27 -67.02, 0 -79 M8.06 -56.41 C5.59 -63.34, 3.12 -70.27, 0 -79" stroke="#a61e4d" stroke-width="1" fill="none"></path></g><g transform="translate(648 305) rotate(0 -0.12521773769674382 -39.5)"><path d="M-8.35 -56.51 C-6.39 -61.79, -4.42 -67.08, 0 -79 M-8.35 -56.51 C-5.79 -63.41, -3.23 -70.31, 0 -79" stroke="#a61e4d" stroke-width="1" fill="none"></path></g></g><mask id="mask-t3rCJlUAe61hbDd5oK5qZ"><rect x="0" y="0" fill="#fff" width="748.2504354753935" height="484"></rect><rect x="640.2495645246065" y="261.4784653894453" fill="#000" width="15" height="25" opacity="1"></rect></mask><g transform="translate(640.2495645246065 261.4784653894453) rotate(0 7.625217737696744 4.021534610554681)"><text x="7.5" y="18" font-family="Virgil, Segoe UI Emoji" font-size="20px" fill="#a61e4d" text-anchor="middle" style="white-space: pre;" direction="ltr">0</text></g><g mask="url(#mask-pQ6RwE5YSG9skKzpH1IGA)" stroke-linecap="round"><g transform="translate(242 81) rotate(0 -0.46296296296299033 35)"><path d="M0 0 C0 3.78, 0.17 11.04, 0 22.7 C-0.17 34.37, -0.83 62.12, -1 70 M0 0 C0 3.78, 0.17 11.04, 0 22.7 C-0.17 34.37, -0.83 62.12, -1 70" stroke="#5c940d" stroke-width="1" fill="none"></path></g><g transform="translate(242 81) rotate(0 -0.46296296296299033 35)"><path d="M-8.59 47.6 C-6.14 54.83, -3.69 62.07, -1 70 M-8.59 47.6 C-5.64 56.3, -2.69 65.01, -1 70" stroke="#5c940d" stroke-width="1" fill="none"></path></g><g transform="translate(242 81) rotate(0 -0.46296296296299033 35)"><path d="M7.59 47.96 C4.81 55.08, 2.04 62.2, -1 70 M7.59 47.96 C4.25 56.53, 0.91 65.09, -1 70" stroke="#5c940d" stroke-width="1" fill="none"></path></g></g><mask id="mask-pQ6RwE5YSG9skKzpH1IGA"><rect x="0" y="0" fill="#fff" width="343" height="251"></rect><rect x="232" y="91.20468081502224" fill="#000" width="20" height="25" opacity="1"></rect></mask><g transform="translate(232 91.20468081502224) rotate(0 9.53703703703701 24.795319184977757)"><text x="10" y="18" font-family="Virgil, Segoe UI Emoji" font-size="20px" fill="#5c940d" text-anchor="middle" style="white-space: pre;" direction="ltr">10</text></g><g mask="url(#mask-MZD1rPKNDPjZXuYwxZkyP)" stroke-linecap="round"><g transform="translate(445 77) rotate(0 -0.46296296296299033 35)"><path d="M0 0 C0 4.01, 0.17 12.42, 0 24.09 C-0.17 35.75, -0.83 62.35, -1 70 M0 0 C0 4.01, 0.17 12.42, 0 24.09 C-0.17 35.75, -0.83 62.35, -1 70" stroke="#a61e4d" stroke-width="1" fill="none"></path></g><g transform="translate(445 77) rotate(0 -0.46296296296299033 35)"><path d="M-8.35 48.25 C-6.06 55.02, -3.77 61.79, -1 70 M-8.35 48.25 C-6.27 54.39, -4.2 60.54, -1 70" stroke="#a61e4d" stroke-width="1" fill="none"></path></g><g transform="translate(445 77) rotate(0 -0.46296296296299033 35)"><path d="M7.35 48.61 C4.75 55.27, 2.15 61.93, -1 70 M7.35 48.61 C4.99 54.66, 2.63 60.7, -1 70" stroke="#a61e4d" stroke-width="1" fill="none"></path></g></g><mask id="mask-MZD1rPKNDPjZXuYwxZkyP"><rect x="0" y="0" fill="#fff" width="546" height="247"></rect><rect x="435" y="88.58806541983148" fill="#000" width="20" height="25" opacity="1"></rect></mask><g transform="translate(435 88.58806541983148) rotate(0 9.53703703703701 23.41193458016852)"><text x="10" y="18" font-family="Virgil, Segoe UI Emoji" font-size="20px" fill="#a61e4d" text-anchor="middle" style="white-space: pre;" direction="ltr">10</text></g><g mask="url(#mask-TfMAvlmMVenNzB0oKVhO0)" stroke-linecap="round"><g transform="translate(671 76) rotate(0 -0.5 35)"><path d="M0 0 C-0.06 3.88, -0.19 11.61, -0.36 23.28 C-0.53 34.95, -0.89 62.21, -1 70 M0 0 C-0.06 3.88, -0.19 11.61, -0.36 23.28 C-0.53 34.95, -0.89 62.21, -1 70" stroke="#5c940d" stroke-width="1" fill="none"></path></g><g transform="translate(671 76) rotate(0 -0.5 35)"><path d="M-8.69 47.94 C-7.15 52.37, -5.6 56.8, -1 70 M-8.69 47.94 C-6.34 54.67, -4 61.4, -1 70" stroke="#5c940d" stroke-width="1" fill="none"></path></g><g transform="translate(671 76) rotate(0 -0.5 35)"><path d="M7.29 48.16 C5.62 52.54, 3.96 56.93, -1 70 M7.29 48.16 C4.76 54.82, 2.23 61.48, -1 70" stroke="#5c940d" stroke-width="1" fill="none"></path></g></g><mask id="mask-TfMAvlmMVenNzB0oKVhO0"><rect x="0" y="0" fill="#fff" width="772" height="246"></rect><rect x="667.6409763672732" y="86.78084869541038" fill="#000" width="6" height="25" opacity="1"></rect></mask><g transform="translate(667.6409763672732 86.78084869541038) rotate(0 2.859023632726803 24.219151304589616)"><text x="3" y="18" font-family="Virgil, Segoe UI Emoji" font-size="20px" fill="#5c940d" text-anchor="middle" style="white-space: pre;" direction="ltr">1</text></g><g mask="url(#mask-BdTCno_gRAmvAJOQ3WRxI)" stroke-linecap="round"><g transform="translate(443 231) rotate(0 -0.5 35)"><path d="M0 0 C-0.11 4.45, -0.5 15.05, -0.67 26.71 C-0.84 38.38, -0.95 62.79, -1 70 M0 0 C-0.11 4.45, -0.5 15.05, -0.67 26.71 C-0.84 38.38, -0.95 62.79, -1 70" stroke="#a61e4d" stroke-width="1" fill="none"></path></g><g transform="translate(443 231) rotate(0 -0.5 35)"><path d="M-8.28 49.62 C-5.55 57.25, -2.83 64.88, -1 70 M-8.28 49.62 C-6.18 55.5, -4.08 61.37, -1 70" stroke="#a61e4d" stroke-width="1" fill="none"></path></g><g transform="translate(443 231) rotate(0 -0.5 35)"><path d="M6.53 49.71 C3.71 57.3, 0.89 64.9, -1 70 M6.53 49.71 C4.36 55.56, 2.19 61.41, -1 70" stroke="#a61e4d" stroke-width="1" fill="none"></path></g></g><mask id="mask-BdTCno_gRAmvAJOQ3WRxI"><rect x="0" y="0" fill="#fff" width="544" height="401"></rect><rect x="434.8292635154137" y="245.2135148696558" fill="#000" width="15" height="25" opacity="1"></rect></mask><g transform="translate(434.8292635154137 245.2135148696558) rotate(0 7.670736484586314 20.786485130344204)"><text x="7.5" y="18" font-family="Virgil, Segoe UI Emoji" font-size="20px" fill="#a61e4d" text-anchor="middle" style="white-space: pre;" direction="ltr">0</text></g><g mask="url(#mask-p1bIdXOLxuhjK4IJGxtb1)" stroke-linecap="round"><g transform="translate(669 230) rotate(0 -0.5 35)"><path d="M0 0 C-0.13 4.42, -0.6 14.84, -0.77 26.51 C-0.94 38.18, -0.96 62.75, -1 70 M0 0 C-0.13 4.42, -0.6 14.84, -0.77 26.51 C-0.94 38.18, -0.96 62.75, -1 70" stroke="#5c940d" stroke-width="1" fill="none"></path></g><g transform="translate(669 230) rotate(0 -0.5 35)"><path d="M-8.37 49.54 C-5.64 57.11, -2.92 64.68, -1 70 M-8.37 49.54 C-6.68 54.22, -5 58.9, -1 70" stroke="#5c940d" stroke-width="1" fill="none"></path></g><g transform="translate(669 230) rotate(0 -0.5 35)"><path d="M6.51 49.59 C3.73 57.14, 0.95 64.69, -1 70 M6.51 49.59 C4.79 54.26, 3.07 58.93, -1 70" stroke="#5c940d" stroke-width="1" fill="none"></path></g></g><mask id="mask-p1bIdXOLxuhjK4IJGxtb1"><rect x="0" y="0" fill="#fff" width="770" height="400"></rect><rect x="660.231354068045" y="244.0087037200418" fill="#000" width="16" height="25" opacity="1"></rect></mask><g transform="translate(660.231354068045 244.0087037200418) rotate(0 8.268645931955007 20.991296279958192)"><text x="8" y="18" font-family="Virgil, Segoe UI Emoji" font-size="20px" fill="#5c940d" text-anchor="middle" style="white-space: pre;" direction="ltr">8</text></g><g mask="url(#mask-haDi1zkq-IxeMfaFYWw89)" stroke-linecap="round"><g transform="translate(256 165) rotate(0 74 -53)"><path d="M0 0 C14.19 -10.32, 60.49 -44.27, 85.15 -61.93 C109.82 -79.6, 137.53 -98.66, 148 -106 M0 0 C14.19 -10.32, 60.49 -44.27, 85.15 -61.93 C109.82 -79.6, 137.53 -98.66, 148 -106" stroke="#5c940d" stroke-width="1" fill="none"></path></g><g transform="translate(256 165) rotate(0 74 -53)"><path d="M130.72 -81.47 C136.38 -89.51, 142.04 -97.54, 148 -106 M130.72 -81.47 C134.59 -86.96, 138.45 -92.44, 148 -106" stroke="#5c940d" stroke-width="1" fill="none"></path></g><g transform="translate(256 165) rotate(0 74 -53)"><path d="M119 -98.32 C128.5 -100.83, 138 -103.35, 148 -106 M119 -98.32 C125.48 -100.04, 131.97 -101.75, 148 -106" stroke="#5c940d" stroke-width="1" fill="none"></path></g></g><mask id="mask-haDi1zkq-IxeMfaFYWw89"><rect x="0" y="0" fill="#fff" width="504" height="371"></rect><rect x="330.6522404777113" y="90.567691532058" fill="#000" width="21" height="25" opacity="1"></rect></mask><g transform="translate(330.6522404777113 90.567691532058) rotate(0 -0.6522404777113024 21.432308467941994)"><text x="10.5" y="18" font-family="Virgil, Segoe UI Emoji" font-size="20px" fill="#5c940d" text-anchor="middle" style="white-space: pre;" direction="ltr">12</text></g><g mask="url(#mask-APZc7Vr8owZW5V5C1kSMd)" stroke-linecap="round"><g transform="translate(412 74) rotate(0 -73.5 51)"><path d="M0 0 C-13.64 9.39, -57.33 39.33, -81.83 56.33 C-106.33 73.33, -136.14 94.39, -147 102 M0 0 C-13.64 9.39, -57.33 39.33, -81.83 56.33 C-106.33 73.33, -136.14 94.39, -147 102" stroke="#a61e4d" stroke-width="1" fill="none"></path></g><g transform="translate(412 74) rotate(0 -73.5 51)"><path d="M-129.84 77.39 C-136.05 86.3, -142.26 95.2, -147 102 M-129.84 77.39 C-136.31 86.68, -142.78 95.96, -147 102" stroke="#a61e4d" stroke-width="1" fill="none"></path></g><g transform="translate(412 74) rotate(0 -73.5 51)"><path d="M-118.04 94.18 C-128.52 97.01, -139 99.84, -147 102 M-118.04 94.18 C-128.96 97.13, -139.89 100.08, -147 102" stroke="#a61e4d" stroke-width="1" fill="none"></path></g></g><mask id="mask-APZc7Vr8owZW5V5C1kSMd"><rect x="0" y="0" fill="#fff" width="659" height="276"></rect><rect x="322.674638188553" y="117.83463915351581" fill="#000" width="15" height="25" opacity="1"></rect></mask><g transform="translate(322.674638188553 117.83463915351581) rotate(0 15.82536181144701 7.165360846484191)"><text x="7.5" y="18" font-family="Virgil, Segoe UI Emoji" font-size="20px" fill="#a61e4d" text-anchor="middle" style="white-space: pre;" direction="ltr">0</text></g><g mask="url(#mask-UqizqqBHMehMGl-uV4afI)" stroke-linecap="round"><g transform="translate(269 185) rotate(0 64 0.5)"><path d="M0 0 C8.84 0.03, 31.7 -0.01, 53.03 0.16 C74.36 0.32, 115.5 0.86, 128 1 M0 0 C8.84 0.03, 31.7 -0.01, 53.03 0.16 C74.36 0.32, 115.5 0.86, 128 1" stroke="#5c940d" stroke-width="1" fill="none"></path></g><g transform="translate(269 185) rotate(0 64 0.5)"><path d="M99.69 10.92 C107.19 8.29, 114.7 5.66, 128 1 M99.69 10.92 C109.11 7.62, 118.52 4.32, 128 1" stroke="#5c940d" stroke-width="1" fill="none"></path></g><g transform="translate(269 185) rotate(0 64 0.5)"><path d="M99.93 -9.6 C107.38 -6.79, 114.82 -3.98, 128 1 M99.93 -9.6 C109.27 -6.07, 118.61 -2.55, 128 1" stroke="#5c940d" stroke-width="1" fill="none"></path></g></g><mask id="mask-UqizqqBHMehMGl-uV4afI"><rect x="0" y="0" fill="#fff" width="497" height="286"></rect><rect x="312.02996552240324" y="172.65737210077828" fill="#000" width="20" height="25" opacity="1"></rect></mask><g transform="translate(312.02996552240324 172.65737210077828) rotate(0 20.970034477596755 12.842627899221725)"><text x="10" y="18" font-family="Virgil, Segoe UI Emoji" font-size="20px" fill="#5c940d" text-anchor="middle" style="white-space: pre;" direction="ltr">10</text></g><g mask="url(#mask-64IO7fkCEpEYOOps5FCi6)" stroke-linecap="round"><g transform="translate(394 205) rotate(0 -63 -0.5)"><path d="M0 0 C-7.8 -0.06, -25.83 -0.2, -46.83 -0.37 C-67.83 -0.53, -112.8 -0.89, -126 -1 M0 0 C-7.8 -0.06, -25.83 -0.2, -46.83 -0.37 C-67.83 -0.53, -112.8 -0.89, -126 -1" stroke="#a61e4d" stroke-width="1" fill="none"></path></g><g transform="translate(394 205) rotate(0 -63 -0.5)"><path d="M-97.73 -11.03 C-107.01 -7.74, -116.29 -4.45, -126 -1 M-97.73 -11.03 C-106.12 -8.06, -114.52 -5.08, -126 -1" stroke="#a61e4d" stroke-width="1" fill="none"></path></g><g transform="translate(394 205) rotate(0 -63 -0.5)"><path d="M-97.89 9.49 C-107.12 6.04, -116.34 2.6, -126 -1 M-97.89 9.49 C-106.24 6.37, -114.58 3.26, -126 -1" stroke="#a61e4d" stroke-width="1" fill="none"></path></g></g><mask id="mask-64IO7fkCEpEYOOps5FCi6"><rect x="0" y="0" fill="#fff" width="620" height="306"></rect><rect x="339.6722159266046" y="192.1337632589624" fill="#000" width="15" height="25" opacity="1"></rect></mask><g transform="translate(339.6722159266045 192.1337632589624) rotate(0 -8.672215926604508 12.366236741037596)"><text x="7.5" y="18" font-family="Virgil, Segoe UI Emoji" font-size="20px" fill="#a61e4d" text-anchor="middle" style="white-space: pre;" direction="ltr">0</text></g><g mask="url(#mask-y6rBdAlSr0yURsTVhrOMY)" stroke-linecap="round"><g transform="translate(256 315) rotate(0 75 -50)"><path d="M0 0 C10.65 -7.39, 38.91 -27.7, 63.91 -44.37 C88.91 -61.03, 135.65 -90.73, 150 -100 M0 0 C10.65 -7.39, 38.91 -27.7, 63.91 -44.37 C88.91 -61.03, 135.65 -90.73, 150 -100" stroke="#5c940d" stroke-width="1" fill="none"></path></g><g transform="translate(256 315) rotate(0 75 -50)"><path d="M131.81 -76.14 C137.71 -83.88, 143.61 -91.62, 150 -100 M131.81 -76.14 C135.82 -81.41, 139.84 -86.67, 150 -100" stroke="#5c940d" stroke-width="1" fill="none"></path></g><g transform="translate(256 315) rotate(0 75 -50)"><path d="M120.73 -93.42 C130.22 -95.55, 139.72 -97.69, 150 -100 M120.73 -93.42 C127.19 -94.87, 133.65 -96.32, 150 -100" stroke="#5c940d" stroke-width="1" fill="none"></path></g></g><mask id="mask-y6rBdAlSr0yURsTVhrOMY"><rect x="0" y="0" fill="#fff" width="506" height="515"></rect><rect x="313.9052683051468" y="258.13171896525046" fill="#000" width="12" height="25" opacity="1"></rect></mask><g transform="translate(313.9052683051468 258.13171896525046) rotate(0 17.09473169485318 6.868281034749543)"><text x="6" y="18" font-family="Virgil, Segoe UI Emoji" font-size="20px" fill="#5c940d" text-anchor="middle" style="white-space: pre;" direction="ltr">7</text></g><g mask="url(#mask-E5laTCyFy5lvSfhH5hi_v)" stroke-linecap="round"><g transform="translate(416 224) rotate(0 -74.5 50.5)"><path d="M0 0 C-10.47 7.12, -37.97 25.9, -62.81 42.74 C-87.64 59.57, -134.63 91.29, -149 101 M0 0 C-10.47 7.12, -37.97 25.9, -62.81 42.74 C-87.64 59.57, -134.63 91.29, -149 101" stroke="#a61e4d" stroke-width="1" fill="none"></path></g><g transform="translate(416 224) rotate(0 -74.5 50.5)"><path d="M-131.38 76.72 C-137.58 85.26, -143.78 93.81, -149 101 M-131.38 76.72 C-134.96 81.65, -138.54 86.58, -149 101" stroke="#a61e4d" stroke-width="1" fill="none"></path></g><g transform="translate(416 224) rotate(0 -74.5 50.5)"><path d="M-119.9 93.72 C-130.14 96.28, -140.38 98.84, -149 101 M-119.9 93.72 C-125.81 95.2, -131.72 96.68, -149 101" stroke="#a61e4d" stroke-width="1" fill="none"></path></g></g><mask id="mask-E5laTCyFy5lvSfhH5hi_v"><rect x="0" y="0" fill="#fff" width="665" height="425"></rect><rect x="345.6921913754977" y="254.23644073361356" fill="#000" width="15" height="25" opacity="1"></rect></mask><g transform="translate(345.6921913754978 254.23644073361356) rotate(0 -4.192191375497828 20.263559266386437)"><text x="7.5" y="18" font-family="Virgil, Segoe UI Emoji" font-size="20px" fill="#a61e4d" text-anchor="middle" style="white-space: pre;" direction="ltr">0</text></g><g mask="url(#mask-au_Ucg_KzsMqInffm3Pec)" stroke-linecap="round"><g transform="translate(268 337) rotate(0 64 0.46296296296299033)"><path d="M0 0 C12.41 0, 53.13 -0.17, 74.46 0 C95.79 0.17, 119.08 0.83, 128 1 M0 0 C12.41 0, 53.13 -0.17, 74.46 0 C95.79 0.17, 119.08 0.83, 128 1" stroke="#5c940d" stroke-width="1" fill="none"></path></g><g transform="translate(268 337) rotate(0 64 0.46296296296299033)"><path d="M102.64 9.59 C110.64 6.88, 118.63 4.17, 128 1 M102.64 9.59 C108.42 7.63, 114.19 5.68, 128 1" stroke="#5c940d" stroke-width="1" fill="none"></path></g><g transform="translate(268 337) rotate(0 64 0.46296296296299033)"><path d="M103.05 -8.72 C110.92 -5.66, 118.78 -2.59, 128 1 M103.05 -8.72 C108.73 -6.51, 114.41 -4.29, 128 1" stroke="#5c940d" stroke-width="1" fill="none"></path></g></g><mask id="mask-au_Ucg_KzsMqInffm3Pec"><rect x="0" y="0" fill="#fff" width="496" height="438"></rect><rect x="334.9607100699411" y="324.5" fill="#000" width="15" height="25" opacity="1"></rect></mask><g transform="translate(334.9607100699411 324.5) rotate(0 -2.960710069941115 12.96296296296299)"><text x="7.5" y="18" font-family="Virgil, Segoe UI Emoji" font-size="20px" fill="#5c940d" text-anchor="middle" style="white-space: pre;" direction="ltr">2</text></g><g mask="url(#mask-GwjntElDCMn38zwqG3ptA)" stroke-linecap="round"><g transform="translate(397 359) rotate(0 -66.5 -0.46296296296299033)"><path d="M0 0 C-13.33 0, -57.84 0.17, -80 0 C-102.17 -0.17, -124.17 -0.83, -133 -1 M0 0 C-13.33 0, -57.84 0.17, -80 0 C-102.17 -0.17, -124.17 -0.83, -133 -1" stroke="#a61e4d" stroke-width="1" fill="none"></path></g><g transform="translate(397 359) rotate(0 -66.5 -0.46296296296299033)"><path d="M-107.89 -9.49 C-117.87 -6.11, -127.85 -2.74, -133 -1 M-107.89 -9.49 C-113.59 -7.56, -119.29 -5.63, -133 -1" stroke="#a61e4d" stroke-width="1" fill="none"></path></g><g transform="translate(397 359) rotate(0 -66.5 -0.46296296296299033)"><path d="M-108.31 8.64 C-118.13 4.81, -127.94 0.98, -133 -1 M-108.31 8.64 C-113.91 6.45, -119.52 4.26, -133 -1" stroke="#a61e4d" stroke-width="1" fill="none"></path></g></g><mask id="mask-GwjntElDCMn38zwqG3ptA"><rect x="0" y="0" fill="#fff" width="630" height="460"></rect><rect x="310.49717316290435" y="346.5" fill="#000" width="13" height="25" opacity="1"></rect></mask><g transform="translate(310.49717316290446 346.5) rotate(0 20.00282683709554 12.03703703703701)"><text x="6.5" y="18" font-family="Virgil, Segoe UI Emoji" font-size="20px" fill="#a61e4d" text-anchor="middle" style="white-space: pre;" direction="ltr">5</text></g><g mask="url(#mask-Iu8M-QVpK9BZZ-Ex8ENBH)" stroke-linecap="round"><g transform="translate(466 176) rotate(0 80 0)"><path d="M0 0 C10.51 0, 36.41 0, 63.08 0 C89.74 0, 143.85 0, 160 0 M0 0 C10.51 0, 36.41 0, 63.08 0 C89.74 0, 143.85 0, 160 0" stroke="#a61e4d" stroke-width="1" fill="none"></path></g><g transform="translate(466 176) rotate(0 80 0)"><path d="M131.81 10.26 C138.9 7.68, 146 5.1, 160 0 M131.81 10.26 C140.87 6.96, 149.93 3.67, 160 0" stroke="#a61e4d" stroke-width="1" fill="none"></path></g><g transform="translate(466 176) rotate(0 80 0)"><path d="M131.81 -10.26 C138.9 -7.68, 146 -5.1, 160 0 M131.81 -10.26 C140.87 -6.96, 149.93 -3.67, 160 0" stroke="#a61e4d" stroke-width="1" fill="none"></path></g></g><mask id="mask-Iu8M-QVpK9BZZ-Ex8ENBH"><rect x="0" y="0" fill="#fff" width="726" height="276"></rect><rect x="519.0756662876242" y="163.5" fill="#000" width="20" height="25" opacity="1"></rect></mask><g transform="translate(519.0756662876242 163.5) rotate(0 26.924333712375756 12.5)"><text x="10" y="18" font-family="Virgil, Segoe UI Emoji" font-size="20px" fill="#a61e4d" text-anchor="middle" style="white-space: pre;" direction="ltr">10</text></g><g mask="url(#mask-yek25QwL0B8UgUFj4EIdu)" stroke-linecap="round"><g transform="translate(617 198) rotate(0 -76 -0.4629629629629619)"><path d="M0 0 C-9.53 0, -31.87 0.17, -57.2 0 C-82.53 -0.17, -136.2 -0.83, -152 -1 M0 0 C-9.53 0, -31.87 0.17, -57.2 0 C-82.53 -0.17, -136.2 -0.83, -152 -1" stroke="#5c940d" stroke-width="1" fill="none"></path></g><g transform="translate(617 198) rotate(0 -76 -0.4629629629629619)"><path d="M-123.69 -10.94 C-132.21 -7.95, -140.72 -4.96, -152 -1 M-123.69 -10.94 C-132.48 -7.85, -141.26 -4.77, -152 -1" stroke="#5c940d" stroke-width="1" fill="none"></path></g><g transform="translate(617 198) rotate(0 -76 -0.4629629629629619)"><path d="M-123.93 9.58 C-132.37 6.4, -140.82 3.22, -152 -1 M-123.93 9.58 C-132.64 6.3, -141.35 3.01, -152 -1" stroke="#5c940d" stroke-width="1" fill="none"></path></g></g><mask id="mask-yek25QwL0B8UgUFj4EIdu"><rect x="0" y="0" fill="#fff" width="869" height="299"></rect><rect x="552.298350602782" y="185.5" fill="#000" width="15" height="25" opacity="1"></rect></mask><g transform="translate(552.298350602782 185.5) rotate(0 -11.298350602781966 12.037037037037038)"><text x="7.5" y="18" font-family="Virgil, Segoe UI Emoji" font-size="20px" fill="#5c940d" text-anchor="middle" style="white-space: pre;" direction="ltr">0</text></g><g mask="url(#mask-1Le6TcATXQEOk_YK1KmTN)" stroke-linecap="round"><g transform="translate(628 161) rotate(0 -85.5 -46)"><path d="M0 0 C-19.38 -10.61, -87.76 -48.3, -116.26 -63.64 C-144.76 -78.97, -161.88 -87.27, -171 -92 M0 0 C-19.38 -10.61, -87.76 -48.3, -116.26 -63.64 C-144.76 -78.97, -161.88 -87.27, -171 -92" stroke="#a61e4d" stroke-width="1" fill="none"></path></g><g transform="translate(628 161) rotate(0 -85.5 -46)"><path d="M-141.22 -88.38 C-151.19 -89.59, -161.16 -90.8, -171 -92 M-141.22 -88.38 C-147.82 -89.18, -154.42 -89.99, -171 -92" stroke="#a61e4d" stroke-width="1" fill="none"></path></g><g transform="translate(628 161) rotate(0 -85.5 -46)"><path d="M-150.51 -70.08 C-157.37 -77.42, -164.23 -84.76, -171 -92 M-150.51 -70.08 C-155.06 -74.94, -159.6 -79.8, -171 -92" stroke="#a61e4d" stroke-width="1" fill="none"></path></g></g><mask id="mask-1Le6TcATXQEOk_YK1KmTN"><rect x="0" y="0" fill="#fff" width="899" height="353"></rect><rect x="505.73696902992606" y="84.86454502511003" fill="#000" width="12" height="25" opacity="1"></rect></mask><g transform="translate(505.73696902992606 84.86454502511003) rotate(0 36.76303097007394 30.135454974889967)"><text x="6" y="18" font-family="Virgil, Segoe UI Emoji" font-size="20px" fill="#a61e4d" text-anchor="middle" style="white-space: pre;" direction="ltr">11</text></g><g mask="url(#mask-W2nQ-R99MjjhCtFtmOQ8l)" stroke-linecap="round"><g transform="translate(466 58) rotate(0 88.5 49)"><path d="M0 0 C29.5 16.33, 147.5 81.67, 177 98 M0 0 C29.5 16.33, 147.5 81.67, 177 98" stroke="#5c940d" stroke-width="1" fill="none"></path></g><g transform="translate(466 58) rotate(0 88.5 49)"><path d="M147.37 93.32 C154 94.37, 160.63 95.42, 177 98 M147.37 93.32 C159.18 95.19, 171 97.05, 177 98" stroke="#5c940d" stroke-width="1" fill="none"></path></g><g transform="translate(466 58) rotate(0 88.5 49)"><path d="M157.31 75.37 C161.72 80.43, 166.12 85.5, 177 98 M157.31 75.37 C165.16 84.39, 173.01 93.42, 177 98" stroke="#5c940d" stroke-width="1" fill="none"></path></g></g><mask id="mask-W2nQ-R99MjjhCtFtmOQ8l"><rect x="0" y="0" fill="#fff" width="743" height="256"></rect><rect x="547" y="94.5" fill="#000" width="15" height="25" opacity="1"></rect></mask><g transform="translate(547 94.5) rotate(0 7.5 12.5)"><text x="7.5" y="18" font-family="Virgil, Segoe UI Emoji" font-size="20px" fill="#5c940d" text-anchor="middle" style="white-space: pre;" direction="ltr">0</text></g><g mask="url(#mask-6rwRpEjC92npeuEsJmmhC)" stroke-linecap="round"><g transform="translate(458 318) rotate(0 83 -54)"><path d="M0 0 C11.32 -7.36, 40.27 -26.18, 67.94 -44.18 C95.6 -62.18, 149.66 -97.36, 166 -108 M0 0 C11.32 -7.36, 40.27 -26.18, 67.94 -44.18 C95.6 -62.18, 149.66 -97.36, 166 -108" stroke="#5c940d" stroke-width="1" fill="none"></path></g><g transform="translate(458 318) rotate(0 83 -54)"><path d="M147.97 -84.02 C154 -92.04, 160.03 -100.06, 166 -108 M147.97 -84.02 C153.73 -91.68, 159.49 -99.34, 166 -108" stroke="#5c940d" stroke-width="1" fill="none"></path></g><g transform="translate(458 318) rotate(0 83 -54)"><path d="M136.78 -101.22 C146.55 -103.49, 156.33 -105.76, 166 -108 M136.78 -101.22 C146.11 -103.39, 155.44 -105.55, 166 -108" stroke="#5c940d" stroke-width="1" fill="none"></path></g></g><mask id="mask-6rwRpEjC92npeuEsJmmhC"><rect x="0" y="0" fill="#fff" width="724" height="526"></rect><rect x="522.9374024485783" y="261.3187647911351" fill="#000" width="6" height="25" opacity="1"></rect></mask><g transform="translate(522.9374024485783 261.3187647911351) rotate(0 18.06259755142173 2.681235208864905)"><text x="3" y="18" font-family="Virgil, Segoe UI Emoji" font-size="20px" fill="#5c940d" text-anchor="middle" style="white-space: pre;" direction="ltr">1</text></g><g mask="url(#mask-0tmvjnKmlLq643CjHhKVe)" stroke-linecap="round"><g transform="translate(633 222) rotate(0 -82.5 54)"><path d="M0 0 C-27.5 18, -137.5 90, -165 108 M0 0 C-27.5 18, -137.5 90, -165 108" stroke="#a61e4d" stroke-width="1" fill="none"></path></g><g transform="translate(633 222) rotate(0 -82.5 54)"><path d="M-147.03 83.98 C-151.66 90.17, -156.3 96.36, -165 108 M-147.03 83.98 C-153.2 92.22, -159.37 100.47, -165 108" stroke="#a61e4d" stroke-width="1" fill="none"></path></g><g transform="translate(633 222) rotate(0 -82.5 54)"><path d="M-135.79 101.15 C-143.32 102.91, -150.85 104.68, -165 108 M-135.79 101.15 C-145.82 103.5, -155.85 105.85, -165 108" stroke="#a61e4d" stroke-width="1" fill="none"></path></g></g><mask id="mask-0tmvjnKmlLq643CjHhKVe"><rect x="0" y="0" fill="#fff" width="898" height="430"></rect><rect x="543" y="263.5" fill="#000" width="15" height="25" opacity="1"></rect></mask><g transform="translate(543 263.5) rotate(0 7.5 12.5)"><text x="7.5" y="18" font-family="Virgil, Segoe UI Emoji" font-size="20px" fill="#a61e4d" text-anchor="middle" style="white-space: pre;" direction="ltr">0</text></g><g mask="url(#mask-PVc991p2k88ldOEnlFWQV)" stroke-linecap="round"><g transform="translate(468 341) rotate(0 74.5 0.46296296296299033)"><path d="M0 0 C14.71 0, 63.42 -0.17, 88.25 0 C113.08 0.17, 138.87 0.83, 149 1 M0 0 C14.71 0, 63.42 -0.17, 88.25 0 C113.08 0.17, 138.87 0.83, 149 1" stroke="#5c940d" stroke-width="1" fill="none"></path></g><g transform="translate(468 341) rotate(0 74.5 0.46296296296299033)"><path d="M120.61 10.69 C126.59 8.65, 132.57 6.61, 149 1 M120.61 10.69 C131.23 7.07, 141.84 3.44, 149 1" stroke="#5c940d" stroke-width="1" fill="none"></path></g><g transform="translate(468 341) rotate(0 74.5 0.46296296296299033)"><path d="M121.02 -9.82 C126.91 -7.54, 132.8 -5.26, 149 1 M121.02 -9.82 C131.48 -5.78, 141.95 -1.73, 149 1" stroke="#5c940d" stroke-width="1" fill="none"></path></g></g><mask id="mask-PVc991p2k88ldOEnlFWQV"><rect x="0" y="0" fill="#fff" width="717" height="442"></rect><rect x="548.7484482638608" y="328.5" fill="#000" width="15" height="25" opacity="1"></rect></mask><g transform="translate(548.7484482638608 328.5) rotate(0 -6.248448263860837 12.96296296296299)"><text x="7.5" y="18" font-family="Virgil, Segoe UI Emoji" font-size="20px" fill="#5c940d" text-anchor="middle" style="white-space: pre;" direction="ltr">3</text></g><g mask="url(#mask-X7i_pKemZXQbAVQc-pPZl)" stroke-linecap="round"><g transform="translate(620 356) rotate(0 -79 0.46296296296299033)"><path d="M0 0 C-15.9 0, -69.08 -0.17, -95.42 0 C-121.75 0.17, -147.57 0.83, -158 1 M0 0 C-15.9 0, -69.08 -0.17, -95.42 0 C-121.75 0.17, -147.57 0.83, -158 1" stroke="#a61e4d" stroke-width="1" fill="none"></path></g><g transform="translate(620 356) rotate(0 -79 0.46296296296299033)"><path d="M-130.02 -9.81 C-139.39 -6.19, -148.77 -2.57, -158 1 M-130.02 -9.81 C-136.62 -7.26, -143.22 -4.71, -158 1" stroke="#a61e4d" stroke-width="1" fill="none"></path></g><g transform="translate(620 356) rotate(0 -79 0.46296296296299033)"><path d="M-129.61 10.71 C-139.12 7.45, -148.63 4.2, -158 1 M-129.61 10.71 C-136.31 8.42, -143.01 6.13, -158 1" stroke="#a61e4d" stroke-width="1" fill="none"></path></g></g><mask id="mask-X7i_pKemZXQbAVQc-pPZl"><rect x="0" y="0" fill="#fff" width="878" height="457"></rect><rect x="518.0822549307509" y="343.5" fill="#000" width="13" height="25" opacity="1"></rect></mask><g transform="translate(518.082254930751 343.5) rotate(0 22.91774506924901 12.96296296296299)"><text x="6.5" y="18" font-family="Virgil, Segoe UI Emoji" font-size="20px" fill="#a61e4d" text-anchor="middle" style="white-space: pre;" direction="ltr">5</text></g><g mask="url(#mask-K2JZvGEmfoWQHUTODTZ_K)" stroke-linecap="round"><g transform="translate(692 338) rotate(0 82 -55.5)"><path d="M0 0 C18.27 -12.67, 82.28 -57.55, 109.61 -76.05 C136.95 -94.55, 154.94 -105.17, 164 -111 M0 0 C18.27 -12.67, 82.28 -57.55, 109.61 -76.05 C136.95 -94.55, 154.94 -105.17, 164 -111" stroke="#5c940d" stroke-width="1" fill="none"></path></g><g transform="translate(692 338) rotate(0 82 -55.5)"><path d="M145.55 -87.34 C152.06 -95.7, 158.58 -104.05, 164 -111 M145.55 -87.34 C150.03 -93.09, 154.52 -98.84, 164 -111" stroke="#5c940d" stroke-width="1" fill="none"></path></g><g transform="translate(692 338) rotate(0 82 -55.5)"><path d="M134.66 -104.74 C145.02 -106.95, 155.38 -109.16, 164 -111 M134.66 -104.74 C141.79 -106.26, 148.92 -107.78, 164 -111" stroke="#5c940d" stroke-width="1" fill="none"></path></g></g><mask id="mask-K2JZvGEmfoWQHUTODTZ_K"><rect x="0" y="0" fill="#fff" width="956" height="549"></rect><rect x="795.6140292039202" y="249.45392527549666" fill="#000" width="12" height="25" opacity="1"></rect></mask><g transform="translate(795.6140292039202 249.45392527549672) rotate(0 -21.614029203920154 33.046074724503285)"><text x="6" y="18" font-family="Virgil, Segoe UI Emoji" font-size="20px" fill="#5c940d" text-anchor="middle" style="white-space: pre;" direction="ltr">7</text></g><g mask="url(#mask-bYjgUn2FOE8wY-X76yTel)" stroke-linecap="round"><g transform="translate(839 208) rotate(0 -79 54.5)"><path d="M0 0 C-26.33 18.17, -131.67 90.83, -158 109 M0 0 C-26.33 18.17, -131.67 90.83, -158 109" stroke="#a61e4d" stroke-width="1" fill="none"></path></g><g transform="translate(839 208) rotate(0 -79 54.5)"><path d="M-140.62 84.55 C-144.88 90.53, -149.13 96.52, -158 109 M-140.62 84.55 C-147.15 93.73, -153.68 102.92, -158 109" stroke="#a61e4d" stroke-width="1" fill="none"></path></g><g transform="translate(839 208) rotate(0 -79 54.5)"><path d="M-128.97 101.44 C-136.08 103.29, -143.18 105.14, -158 109 M-128.97 101.44 C-139.87 104.28, -150.78 107.12, -158 109" stroke="#a61e4d" stroke-width="1" fill="none"></path></g></g><mask id="mask-bYjgUn2FOE8wY-X76yTel"><rect x="0" y="0" fill="#fff" width="1097" height="417"></rect><rect x="753.5" y="250" fill="#000" width="13" height="25" opacity="1"></rect></mask><g transform="translate(753.5 250) rotate(0 6.5 12.5)"><text x="6.5" y="18" font-family="Virgil, Segoe UI Emoji" font-size="20px" fill="#a61e4d" text-anchor="middle" style="white-space: pre;" direction="ltr">5</text></g><g mask="url(#mask-EnKk4EPH3qVW8abul_00f)" stroke-linecap="round"><g transform="translate(691 197) rotate(0 75 0.4629629629629619)"><path d="M0 0 C9.86 0, 34.16 -0.17, 59.16 0 C84.16 0.17, 134.86 0.83, 150 1 M0 0 C9.86 0, 34.16 -0.17, 59.16 0 C84.16 0.17, 134.86 0.83, 150 1" stroke="#5c940d" stroke-width="1" fill="none"></path></g><g transform="translate(691 197) rotate(0 75 0.4629629629629619)"><path d="M121.69 10.92 C129.4 8.22, 137.11 5.52, 150 1 M121.69 10.92 C131.59 7.45, 141.5 3.98, 150 1" stroke="#5c940d" stroke-width="1" fill="none"></path></g><g transform="translate(691 197) rotate(0 75 0.4629629629629619)"><path d="M121.93 -9.6 C129.58 -6.71, 137.22 -3.83, 150 1 M121.93 -9.6 C131.75 -5.89, 141.58 -2.18, 150 1" stroke="#5c940d" stroke-width="1" fill="none"></path></g></g><mask id="mask-EnKk4EPH3qVW8abul_00f"><rect x="0" y="0" fill="#fff" width="941" height="298"></rect><rect x="740.6585122417994" y="184.5" fill="#000" width="19" height="25" opacity="1"></rect></mask><g transform="translate(740.6585122417994 184.5) rotate(0 25.34148775820063 12.962962962962962)"><text x="9.5" y="18" font-family="Virgil, Segoe UI Emoji" font-size="20px" fill="#5c940d" text-anchor="middle" style="white-space: pre;" direction="ltr">14</text></g><g mask="url(#mask-kclz4e9bbFx_eAcAJ9EOP)" stroke-linecap="round"><g transform="translate(846 183) rotate(0 -78.5 -2.5)"><path d="M0 0 C-11.36 -0.4, -41.96 -1.56, -68.13 -2.39 C-94.3 -3.23, -142.19 -4.57, -157 -5 M0 0 C-11.36 -0.4, -41.96 -1.56, -68.13 -2.39 C-94.3 -3.23, -142.19 -4.57, -157 -5" stroke="#a61e4d" stroke-width="1" fill="none"></path></g><g transform="translate(846 183) rotate(0 -78.5 -2.5)"><path d="M-128.53 -14.45 C-139.26 -10.89, -149.99 -7.33, -157 -5 M-128.53 -14.45 C-134.8 -12.37, -141.07 -10.28, -157 -5" stroke="#a61e4d" stroke-width="1" fill="none"></path></g><g transform="translate(846 183) rotate(0 -78.5 -2.5)"><path d="M-129.12 6.07 C-139.63 1.89, -150.14 -2.28, -157 -5 M-129.12 6.07 C-135.26 3.63, -141.4 1.19, -157 -5" stroke="#a61e4d" stroke-width="1" fill="none"></path></g></g><mask id="mask-kclz4e9bbFx_eAcAJ9EOP"><rect x="0" y="0" fill="#fff" width="1103" height="288"></rect><rect x="774.8691686829222" y="168.1056012943577" fill="#000" width="6" height="25" opacity="1"></rect></mask><g transform="translate(774.8691686829222 168.1056012943577) rotate(0 -7.369168682922236 12.394398705642288)"><text x="3" y="18" font-family="Virgil, Segoe UI Emoji" font-size="20px" fill="#a61e4d" text-anchor="middle" style="white-space: pre;" direction="ltr">1</text></g><g mask="url(#mask-m2UqpiKarXEQX23ywGPRR)" stroke-linecap="round"><g transform="translate(683 70) rotate(0 81.5 51)"><path d="M0 0 C10.39 6.89, 35.17 24.33, 62.34 41.33 C89.51 58.33, 146.22 91.89, 163 102 M0 0 C10.39 6.89, 35.17 24.33, 62.34 41.33 C89.51 58.33, 146.22 91.89, 163 102" stroke="#5c940d" stroke-width="1" fill="none"></path></g><g transform="translate(683 70) rotate(0 81.5 51)"><path d="M133.54 96.34 C143.99 98.35, 154.44 100.36, 163 102 M133.54 96.34 C140.48 97.68, 147.43 99.01, 163 102" stroke="#5c940d" stroke-width="1" fill="none"></path></g><g transform="translate(683 70) rotate(0 81.5 51)"><path d="M144.07 78.73 C150.78 86.98, 157.5 95.24, 163 102 M144.07 78.73 C148.53 84.21, 153 89.7, 163 102" stroke="#5c940d" stroke-width="1" fill="none"></path></g></g><mask id="mask-m2UqpiKarXEQX23ywGPRR"><rect x="0" y="0" fill="#fff" width="946" height="272"></rect><rect x="738.8392676433432" y="98.82896019155078" fill="#000" width="13" height="25" opacity="1"></rect></mask><g transform="translate(738.8392676433432 98.82896019155078) rotate(0 25.66073235665681 22.171039808449223)"><text x="6.5" y="18" font-family="Virgil, Segoe UI Emoji" font-size="20px" fill="#5c940d" text-anchor="middle" style="white-space: pre;" direction="ltr">5</text></g><g mask="url(#mask-3zeOMS2fD5Q9z0wUdBlje)" stroke-linecap="round"><g transform="translate(864 160) rotate(0 -86 -52)"><path d="M0 0 C-28.67 -17.33, -143.33 -86.67, -172 -104 M0 0 C-28.67 -17.33, -143.33 -86.67, -172 -104" stroke="#a61e4d" stroke-width="1" fill="none"></path></g><g transform="translate(864 160) rotate(0 -86 -52)"><path d="M-142.57 -98.19 C-149.18 -99.5, -155.79 -100.8, -172 -104 M-142.57 -98.19 C-153.7 -100.39, -164.83 -102.58, -172 -104" stroke="#a61e4d" stroke-width="1" fill="none"></path></g><g transform="translate(864 160) rotate(0 -86 -52)"><path d="M-153.19 -80.63 C-157.41 -85.88, -161.64 -91.13, -172 -104 M-153.19 -80.63 C-160.3 -89.47, -167.41 -98.3, -172 -104" stroke="#a61e4d" stroke-width="1" fill="none"></path></g></g><mask id="mask-3zeOMS2fD5Q9z0wUdBlje"><rect x="0" y="0" fill="#fff" width="1136" height="364"></rect><rect x="770.5" y="95.5" fill="#000" width="15" height="25" opacity="1"></rect></mask><g transform="translate(770.5 95.5) rotate(0 7.5 12.5)"><text x="7.5" y="18" font-family="Virgil, Segoe UI Emoji" font-size="20px" fill="#a61e4d" text-anchor="middle" style="white-space: pre;" direction="ltr">2</text></g></svg>